<svg width="41" height="41" viewBox="0 0 41 41" fill="none" xmlns="http://www.w3.org/2000/svg">
<path d="M18.7917 6.83334H6.83341C5.92726 6.83334 5.05822 7.19331 4.41747 7.83406C3.77672 8.47481 3.41675 9.34385 3.41675 10.25V34.1667C3.41675 35.0728 3.77672 35.9419 4.41747 36.5826C5.05822 37.2234 5.92726 37.5833 6.83341 37.5833H30.7501C31.6562 37.5833 32.5253 37.2234 33.166 36.5826C33.8068 35.9419 34.1667 35.0728 34.1667 34.1667V22.2083" stroke="black" stroke-width="3" stroke-linecap="round" stroke-linejoin="round"/>
<path d="M31.6042 4.27083C32.2839 3.59122 33.2056 3.20941 34.1667 3.20941C35.1279 3.20941 36.0496 3.59122 36.7292 4.27083C37.4089 4.95045 37.7907 5.87221 37.7907 6.83333C37.7907 7.79446 37.4089 8.71622 36.7292 9.39583L20.5001 25.625L13.6667 27.3333L15.3751 20.5L31.6042 4.27083Z" stroke="black" stroke-width="3" stroke-linecap="round" stroke-linejoin="round"/>
</svg>
